<svg id="visual" viewBox="0 0 150 45" width="150" height="45" xmlns="http://www.w3.org/2000/svg" xmlns:xlink="http://www.w3.org/1999/xlink" version="1.1"><rect x="0" y="0" width="150" height="45" fill="#001122"></rect><g transform="translate(76.5614892831022 26.40690167133682)"><path d="M4.7 -7.1C5.7 -7.5 5.9 -5.5 9 -3.9C12 -2.3 18 -1.2 18.6 0.3C19.2 1.8 14.4 3.7 11.5 5.7C8.7 7.7 7.8 9.9 6.3 9C4.7 8.1 2.3 4 0.4 3.3C-1.5 2.6 -3 5.2 -3.9 5.7C-4.7 6.2 -5 4.6 -8.9 3.3C-12.8 2 -20.5 1 -21.6 -0.7C-22.8 -2.3 -17.5 -4.7 -15 -8.6C-12.6 -12.5 -13 -17.9 -11 -16.9C-9 -15.9 -4.5 -8.5 -1.3 -6.2C1.8 -3.8 3.7 -6.7 4.7 -7.1" fill="#BB004B"></path></g></svg>